<?xml version="1.0" encoding="UTF-8"?><svg id="Layer_2" xmlns="http://www.w3.org/2000/svg" viewBox="0 0 3480.94 1873.7"><defs><style>.cls-1{fill:#000000;}</style></defs><g id="Layer_1-2"><path class="cls-1" d="m0,0v1873.7h3480.94V0H0Zm99.22,1458.43c228.85-361.29,348.07-549.05,357.67-563.27,0-.62,21.22-34.59,63.63-101.9,152.03-239.64,232.08-365.64,240.06-377.98,126.76,199.76,193.71,305.54,200.95,317.5l-459.23,725.65H99.22Zm1491.38,0l-261.04-412.47-261.04,412.47h-403.07c228.85-361.29,348.07-549.05,357.67-563.27,0-.62,21.22-34.59,63.63-101.9,152.03-239.64,232.08-365.64,240.06-377.98.92,1.46,1.83,2.89,2.75,4.33.92-1.45,1.83-2.88,2.75-4.33,7.98,12.34,88.03,138.34,240.06,377.98,42.41,67.32,63.63,101.28,63.63,101.9,9.6,14.21,128.82,201.97,357.67,563.27h-403.07Zm844.07-377.98c-152.03,239.64-232.08,365.64-240.06,377.98-.92-1.45-1.83-2.89-2.75-4.33-.92,1.44-1.83,2.88-2.75,4.33-7.98-12.34-88.03-138.34-240.06-377.98-42.41-67.32-63.63-101.28-63.63-101.9-9.6-14.21-128.82-201.97-357.67-563.27h403.07l261.04,412.47,261.04-412.47h403.07c-228.85,361.29-348.07,549.05-357.67,563.27,0,.62-21.22,34.59-63.63,101.9Zm629.08-101.9c0,.62-21.22,34.59-63.63,101.9-152.03,239.64-232.08,365.64-240.06,377.98-126.76-199.76-193.71-305.54-200.95-317.5l459.23-725.65h403.07c-228.85,361.29-348.07,549.05-357.67,563.27Z"/></g></svg>