<?xml version="1.0" encoding="UTF-8"?><svg id="Layer_2" xmlns="http://www.w3.org/2000/svg" viewBox="0 0 1422.34 475.46"><defs><style>.cls-1{fill:#fff;}</style></defs><g id="Layer_1-2"><path class="cls-1" d="m1249.77,0l-196.61,330.75c3.1,5.45,31.76,53.67,86.03,144.72,3.42-5.62,37.69-63.05,102.78-172.28,18.16-30.68,27.24-46.16,27.24-46.45,4.11-6.48,55.15-92.06,153.13-256.73h-172.57Z"/><path class="cls-1" d="m1007.69,0l-111.76,188L784.17,0h-172.57c97.98,164.68,149.02,250.26,153.13,256.73,0,.28,9.08,15.76,27.24,46.45,65.09,109.23,99.36,166.66,102.78,172.28.4-.66.78-1.32,1.18-1.97.39.66.78,1.31,1.18,1.97,3.42-5.62,37.69-63.05,102.78-172.28,18.16-30.68,27.24-46.16,27.24-46.45,4.11-6.48,55.15-92.06,153.13-256.73h-172.57Z"/><path class="cls-1" d="m630.71,172.28C565.62,63.05,531.35,5.62,527.93,0c-.4.66-.78,1.32-1.18,1.97-.39-.66-.78-1.31-1.18-1.97-3.42,5.62-37.69,63.05-102.78,172.28-18.16,30.68-27.24,46.16-27.24,46.45-4.11,6.48-55.15,92.06-153.13,256.73h172.57l111.76-188,111.76,188h172.57c-97.98-164.68-149.02-250.26-153.13-256.73,0-.28-9.08-15.76-27.24-46.45Z"/><path class="cls-1" d="m283.15,0c-3.42,5.62-37.69,63.05-102.78,172.28-18.16,30.68-27.24,46.16-27.24,46.45-4.11,6.48-55.15,92.06-153.13,256.73h172.57l196.61-330.75c-3.1-5.45-31.76-53.67-86.03-144.72Z"/></g></svg>