<?xml version="1.0" encoding="UTF-8"?><svg id="Layer_2" xmlns="http://www.w3.org/2000/svg" xmlns:xlink="http://www.w3.org/1999/xlink" viewBox="0 0 474.09 279.75"><defs><style>.cls-1{clip-path:url(#clippath);}.cls-2{fill:none;}.cls-3{fill:#161615;}</style><clipPath id="clippath"><rect class="cls-2" width="474.09" height="279.75"/></clipPath></defs><g id="Layer_1-2"><g id="Group_23"><g class="cls-1"><g id="Group_22"><path id="Path_104" class="cls-3" d="m30.46,0h81.01c11.56,46.33,20.66,86.16,27.29,119.52l6.98-33.3c2.82-12.98,5.85-25.63,9.09-37.96L167.32,0h82.71l32.15,214.75h-63.46l-17.13-147.67-39.55,147.67h-43.36l-41.46-147.99-16.5,147.99H0L30.46,0Z"/><path id="Path_105" class="cls-3" d="m443.63,214.75h-81.01c-11.56-46.33-20.66-86.16-27.29-119.52l-6.98,33.3c-2.82,12.98-5.85,25.63-9.09,37.96l-12.48,48.26h-82.71L191.92,0h63.46l17.13,147.67L312.07,0h43.36l41.46,147.99L413.39,0h60.71l-30.46,214.75Z"/><path id="Path_106" class="cls-3" d="m33.4,224.65c.52.33,1.22.84,2.12,1.54.18.18.49.46.92.81s.73.62.92.8c0,.11.04.22.11.32.07.12.13.17.17.17.24.56.59,1.36,1.06,2.38.31.77.55,1.57.71,2.38l11.65-8.26,7.63,5.18c.43-.46.9-.88,1.41-1.26.61-.34,1.24-.62,1.91-.84h.21c.05,0,.11-.03.14-.07h.07v.7c-.05.06-.08.13-.07.21v.42s-.07.09-.07.14v.28c-.13.11-.22.26-.28.42l-.28.28c-.89,1.17-1.54,2.5-1.91,3.92v30.81l1.48,2.59c.14.05.29.05.42,0,.13-.02.26-.08.35-.17.09-.1.2-.17.32-.21.12-.05.24-.11.35-.17.09-.06.17-.13.25-.21l.21-.21,1.13.98-6.71,6.24h-.7c-1.46-.72-2.71-1.79-3.64-3.12-.91-1.5-1.45-3.19-1.59-4.93v-32.14l-5.01-3.5c-.05.14-.12.21-.21.21h-.14l-.07.07c-.12.12-.24.22-.38.31-.12.07-.23.13-.32.18l-.14.14v15.05h4.24l-4.51,6.02v11.76l1.06-.21c.28-.16.54-.34.78-.56l1.2.77-11.51,9.94c-.7-.84-1.84-2.05-3.39-3.64-1.29-1.19-2.66-2.29-4.1-3.29.56-.36,1.03-.84,1.38-1.4.32-.46.52-.99.6-1.54v-.21c0-.05.03-.1.07-.14v-11.49h-8.12v13.66c-.21,2.42-.87,4.78-1.94,6.96-1.14,2.08-3.1,3.59-5.4,4.17-.1.01-.19.03-.28.07h-.35c-.1.01-.19.04-.29.07h-1.55c-.38,0-.99-.05-1.84-.14l-1.91-.21c-.42-.1-1.08-.21-1.98-.35-.61-.05-1.22-.08-1.84-.07-1.06,0-2.1.25-3.04.74-1.08.64-1.92,1.61-2.4,2.77,0-.07-.03-.15-.07-.21v-.28c-.02-.19-.07-.38-.14-.56v-.63c-.01-.09-.04-.19-.08-.27v-.21c.04-1.68.72-3.29,1.91-4.48,1.28-1.16,2.8-2.02,4.45-2.52l.43-.14c.07,0,.14-.03.21-.07h.14c.12,0,.24-.01.35-.04.1-.02.19-.06.28-.11h.14c4.24,0,6.67-1.49,7.28-4.48v-1.33c.07-3.69-1.81-7.15-4.94-9.1-.4-.21-.83-.36-1.27-.42-.21-.08-.42-.12-.64-.14-.22-.06-.44-.11-.67-.14-.09,0-.17-.03-.25-.07h-.99c-.11.04-.23.07-.35.07h-.35c-.11.04-.23.06-.35.07-.24.05-.66.14-1.27.28-.19.09-.39.17-.6.21-.1,0-.2.04-.28.1-.1.06-.21.12-.32.18v-.07h-.07v-.21h-.07v-.14c0-2.8,1.79-4.81,5.37-6.02.14-.04.37-.12.7-.21l.64-.21c.22-.08.44-.13.67-.17.22-.03.45-.04.67-.04.14-2.91.76-5.77,1.84-8.47,1.18-2.73,3.18-5.03,5.72-6.58,4.81-3.2,9.84-6.05,15.05-8.54v-.14Zm-10.45,7.91c-.56.52-1.36,1.35-2.4,2.52-.65.88-1.17,1.85-1.55,2.87v26.32c-.02,1.36-.53,2.67-1.45,3.68-.85,1.05-1.89,1.91-3.07,2.56.1,0,.2.04.28.1.09.07.16.12.21.17.2.08.42.12.64.14h.14s.09.08.14.11c.07.03.14.04.21.04h.99c-.14,0,.35-.16,1.48-.49.88-.22,1.61-.84,1.98-1.68,0-.05.03-.1.07-.14v-.07c0-.05.03-.1.07-.14v-.07c.05-.09.1-.2.14-.32.03-.07.06-.14.07-.21,0-.02.12-.5.35-1.44,0-.14.03-.28.07-.42v-28.28c0-.21.03-.42.07-.63.05-.23.1-.44.14-.63.02-.13.07-.24.14-.35.1-.42.26-1.03.49-1.82.21-.58.47-1.14.78-1.68v-.14Zm4.94-2.17h-.42c-.04.09-.12.14-.22.14h-.07l-.07.07h-.22c-.07.08-.17.13-.28.14h-.22c-.65.75-1.24,1.54-1.76,2.38-.58.82-1.05,1.72-1.41,2.66v14.64l3.18-4.62h4.8v-12.04c-.14-.74-.53-1.4-1.09-1.89-.6-.65-1.37-1.11-2.22-1.33v-.14Zm15.61,2.52l-4.24,3.01v10.15h4.24v-13.17Zm-4.1,19.18v12.04c-.03.79.09,1.57.35,2.31.25.7.64,1.34,1.13,1.89.51-.07,1.01-.25,1.45-.52.42-.27.81-.59,1.17-.95v-14.77h-4.1Z"/><path id="Path_107" class="cls-3" d="m76.13,238.66l5.15,4.62-2.04,2.66v19.67c-.03.61.08,1.22.31,1.79.27.5.71.88,1.24,1.08l1.62-1.33,1.06,1.05-6.28,5.32c-1.06.03-2.08-.38-2.82-1.12-1-.91-1.63-2.15-1.76-3.5-.06-.28-.08-.56-.07-.84v-22.27l-1.62-2.8,5.22-4.33Zm2.33-11.28h4.24l-5.65,7.56,1.41-7.56Z"/><path id="Path_108" class="cls-3" d="m105.72,243.41l-3.18,4.69c-2.29-.77-4.42-1.96-6.28-3.5v19.96c.81.79,1.77,1.41,2.82,1.82.33.18.71.41,1.16.66s1,.55,1.66.88l3.53-2.66c.06.06.1.14.14.21.05.11.13.2.21.28l.21.21c.03.3.19.58.42.77l-8.9,6.65c-3.72-2.61-7.01-4.2-9.89-4.76,1.19-1.25,1.87-2.9,1.91-4.62v-19.96c1.27-.4,2.47-1.01,3.53-1.82.19-.14.4-.32.64-.52.29-.25.59-.47.92-.67l1.69-1.68c.26-.2.51-.41.74-.63.22-.25.55-.38.88-.35h.35v-.14l7.42,5.18Z"/><path id="Path_109" class="cls-3" d="m122.1,226.26h1.62c-2.14,1.44-3.41,3.86-3.39,6.44v14.49l8.61-8.96h.56l6.15,7.36-6.71,6.23c1.92,1.79,3.46,3.96,4.52,6.37.99,2.35,1.63,4.82,1.9,7.36.02.14.04.28.07.42v.42c0,.12.03.24.07.35v.42l.85.63,1.35-.63.85.91-6.21,5.32c-.24,0-.48-.05-.71-.14-.2-.08-.42-.12-.63-.14-1.31-1.99-2.24-4.19-2.76-6.51l-8.33,6.79c-1.26-.81-2.55-1.56-3.89-2.24-.47-.23-1.15-.56-2.04-.98-.43-.18-1.13-.47-2.12-.84.2-.19.38-.4.53-.63.14-.24.24-.5.31-.77.1-.11.18-.24.21-.39.03-.13.09-.25.18-.35.12-.18.2-.38.25-.59v-23.18h-3.67v-3.99h3.67v-4.97c-.43-2.48-1.48-4.81-3.04-6.79.94-.03,1.88.15,2.75.52.93.46,1.8,1.01,2.62,1.65l.28.28c.76-.96,1.66-1.78,2.68-2.45,1.01-.74,2.21-1.17,3.46-1.26v-.14Zm1.91,30.81l-3.81,3.71v5.53l3.95,1.89,3.95-3.5c-.52-2.88-1.95-5.51-4.1-7.49v-.14Zm1.55-12.61l-3.6,3.15-1.62,2.94v7.63l9.32-9.1-4.1-4.62Z"/><path id="Path_110" class="cls-3" d="m194.2,224.37l.57,1.89v39l4.24-3.43c-.38-1.14-.67-2.31-.85-3.5-.2-1.18-.3-2.37-.29-3.57.15-7.32,3.26-14.27,8.62-19.25l7.27-6.1c-1.05.85-2.24,1.49-3.53,1.89-1.28.39-2.61.58-3.95.56h-.14l-.07-.07h-.21l-.07-.07h-.57c-.07,0-.15-.03-.21-.07h-.42c-.1-.01-.19-.04-.28-.07h-.64c-1.52,0-3.01.41-4.31,1.19-1.28.89-2.35,2.07-3.11,3.43-.05-.14-.13-.37-.25-.7-.04-.17-.11-.34-.21-.49-.02,0-.04-.1-.04-.28-.06-.08-.08-.18-.07-.28v-.28c0-.28.02-.56.07-.84.05-.24.12-.56.21-.98.7-2.64,2.43-4.88,4.8-6.23.16-.06.3-.16.42-.28.14,0,.28-.05.39-.14.1-.08.21-.15.32-.21.09-.04.16-.08.21-.1.08-.04.16-.07.25-.1.08-.04.16-.06.25-.07.17-.03.33-.08.49-.14.12-.01.24-.04.35-.07h.35c.05,0,.1-.03.14-.07h.49l1.42-.15,6.15,2.59c0,.14.05.21.14.21h.35s.02.06.06.07c0,0,.01,0,.01,0h.57c.17-.03.33-.08.49-.14h.14c.1,0,.2-.03.28-.07h.22c.1,0,.19-.02.28-.07h.21c.24-.14.57-.35.99-.63.66-.47,1.65-1.12,2.97-1.96h.29c.22.07.43.15.64.25.11.06.23.09.35.1l.21.21v17.37c.05.19.12.28.21.28h.21c.71.3,1.44.53,2.19.7.28.06.56.08.85.07.24,0,.47-.02.7-.07l.85-.21c.05,0,.1-.03.14-.07h.14c.09,0,.17-.03.25-.07.11-.04.21-.09.32-.14.11-.05.23-.07.35-.07.1.01.21-.02.28-.1.06-.09.13-.17.21-.24l.42-.42s.05-.12.14-.21v-8.69l-2.47-2.45-2.19,2.03-.85-.91,6.99-7.49,4.94,4.34,2.9-2.73h1.48l-2.9,5.04v.21s-.08.09-.11.14c-.03.05-.06.12-.1.21l-.11.21c-.03.07-.04.14-.04.21l-.21,32h-.07v.35c0-.09.1.14.28.7.02.19.07.38.14.56,0,.07.03.14.07.21v.21c.12.07.21.16.28.28.07.11.15.22.25.32.1.09.2.17.32.25.12.07.21.16.28.28.23-.37.52-.7.85-.98.16-.15.32-.29.49-.42.11-.06.22-.13.32-.21.08-.07.16-.12.25-.17.05-.02.11-.04.17-.07.09-.04.18-.1.25-.17.1.09.15.15.18.17s.08.08.17.18l.21.21c.02.09.05.17.11.24.07.12.13.18.17.18l.21.21-7.06,7.21h-.28c-.11-.04-.23-.07-.35-.07l-.64-.21c-2.28-2.42-3.71-5.52-4.1-8.82-1.83,2.22-3.95,4.2-6.29,5.88-2.26,1.68-5.02,2.57-7.84,2.52h-.63c-1.48-.02-2.95-.23-4.38-.63-1.38-.49-2.66-1.25-3.74-2.24-.91-.94-1.74-1.95-2.51-3.01-1.01-1.35-1.75-2.43-2.22-3.22-1.78,2.42-3.95,4.53-6.43,6.23-2.28,1.74-5.04,2.74-7.91,2.87h-.49c-.24,0-1.18-.12-2.83-.35-4.71-1.16-8.02-4.38-9.96-9.66-1.09-2.86-1.66-5.9-1.69-8.96v-1.12l2.05-7.85c1.64-3.75,4.02-7.13,6.99-9.94l7.48-5.67-.14-.56c-.9.77-1.93,1.39-3.04,1.82-1.11.33-2.24.59-3.39.77-.33.07-.66.12-.99.14h-1.98c-.33-.05-.66-.12-.99-.21-.69-.04-1.38-.16-2.04-.35-1.58.18-3.04.95-4.06,2.17-1.09,1.22-1.81,2.73-2.08,4.34l-.56-.14v-1.61c.14-.48.19-.97.14-1.47,0-.14.03-.28.07-.42v-.49l.21-.84c.52-2.11,1.49-4.09,2.82-5.81,1.14-1.59,2.99-2.53,4.95-2.52h.14s.05.07.14.07h.64s.05.07.14.07h.35c2.77.71,5.46,1.67,8.05,2.87h.07v.07h.21v.07h.71c.12-.01.24-.04.35-.07h.35c2.15-.32,4.15-1.29,5.72-2.8h.21c.05,0,.1-.03.14-.07h.49c.05,0,.11-.03.14-.07h.07l.43-.14Zm-6,6.65c-2.71,2.2-5.07,4.79-6.99,7.7-2.32,3.33-3.71,7.22-4.02,11.27-.06.56-.08,1.12-.07,1.68v.91c0,.14.03.29.07.42v.49c.22,1.74.69,3.43,1.38,5.04.69,1.61,1.63,3.09,2.79,4.41.3-.44.63-.86.99-1.26.25-.47.46-.96.63-1.47v-19.25c.2-1.77.8-3.47,1.77-4.97.99-1.59,2.15-3.07,3.46-4.41l.42-.42-.42-.14Zm4.8-4.06c-.39.61-.75,1.24-1.06,1.89l-.85,1.89c-.52,1.23-.9,2.52-1.13,3.84v16.8c0,1.33-.19,2.65-.57,3.92-.37,1.19-.87,2.34-1.48,3.43l-5.37,4.69c1.81,2.03,4.42,3.18,7.14,3.15h.78c.31-.02.62-.07.92-.14.06,0,.11-.03.14-.07h.14c.13,0,.26-.02.39-.04.17-.02.31-.04.42-.07.11-.02.22-.06.32-.11h.21v-39.21Zm22.52,3.64c-7.58,6.58-11.32,13.65-11.22,21.22.04,1.37.26,2.74.64,4.06.35,1.27.8,2.51,1.34,3.71.28.65.78,1.68,1.48,3.08l.14-.14s.12-.05.21-.14l.57-.56.21-.84c.12-.32.22-.65.28-.98.03-.24.07-.47.14-.7.02-.22.06-.43.14-.63.03-.24.07-.47.14-.7,0-.12.03-.24.07-.35v-16.94c.38-1.63,1.96-4.46,4.73-8.47.2-.22.39-.46.57-.7.05-.09.11-.17.18-.24.06-.05.1-.11.14-.18.08-.12.16-.24.25-.35v-.15Zm3.04-3.36c-.06.13-.11.27-.14.42l-.14.14c-.04.23-.15.44-.32.6-.14.12-.23.28-.28.46-.02.13-.08.25-.17.35-.09.35-.23.68-.43.98-.01.15-.05.29-.11.42-.05.14-.11.28-.17.42v20.65c-.25,2.1-1.03,4.1-2.26,5.81-1.19,1.69-2.51,3.28-3.95,4.76l-.85.84c-.15.11-.27.25-.35.42-.05,0-.11.05-.18.14-.06.09-.15.16-.25.21,2.1,2.32,5.13,3.58,8.26,3.43h.29c.07,0,.14-.03.21-.07h.29c.05,0,.11-.03.14-.07h.42v-39.91Zm1.62,25.2c.14.05.28.07.43.07.07,0,.15-.03.21-.07h.21c.43,0,.85-.05,1.27-.14.21,0,.43-.02.64-.07h.99c.13.05.28.07.42.07h.99l2.12.42v-8.26c-.05.19-.23.31-.42.28h-.21c-.06.05-.14.07-.21.07-.42.13-.84.24-1.28.32-.39.09-.8.15-1.2.17-.65,0-1.29-.1-1.91-.28-.47-.14-1.16-.32-2.05-.56v7.98Zm4.95.7h-1.34c-.1.09-.22.15-.35.17-.14.03-.28.04-.43.04h-.35c-.14.04-.28.07-.42.07-.18.07-.37.12-.57.14-.84.28-1.2.42-1.06.42-.12.13-.26.22-.43.28l.14,12.74c2.83-.6,5.36-2.19,7.13-4.48v-8.26c-.18-.1-.37-.17-.57-.21,0-.05-.04-.09-.11-.14-.06-.04-.14-.07-.21-.07-.1-.01-.19-.07-.25-.14-.28-.09-.68-.23-1.2-.42v-.14Z"/><path id="Path_111" class="cls-3" d="m251.05,238.66l5.15,4.62-2.04,2.66v19.67c-.03.61.08,1.22.31,1.79.27.5.71.88,1.24,1.08l1.62-1.33,1.06,1.05-6.28,5.32c-1.06.03-2.08-.38-2.82-1.12-1-.91-1.63-2.15-1.76-3.5-.06-.28-.08-.56-.07-.84v-22.27l-1.62-2.8,5.22-4.33Zm2.33-11.28h4.24l-5.65,7.56,1.41-7.56Z"/><path id="Path_112" class="cls-3" d="m273.37,226.26h2.05c-1.12.9-2.02,2.05-2.61,3.36-.48,1.29-.84,2.63-1.06,3.99v31.09l3.81,2.87,1.28-.98,1.06,1.19-6.71,5.88c-1.26-1.27-2.63-2.42-4.1-3.43-1.5-1.02-3.11-1.87-4.8-2.52,1.72-.97,2.78-2.79,2.76-4.76v-30.8c-.49-1.83-1.56-3.45-3.04-4.62l.42-.14c.14.14.33.21.53.21.29.02.58.09.85.21.35.14.61.25.78.32s.45.21.85.42c.55.32,1.06.71,1.52,1.16l.21.21c-.02.17.1.33.27.35.03,0,.06,0,.09,0,0,.1.05.14.14.14.76-.9,1.61-1.73,2.54-2.46.92-.76,2.01-1.28,3.18-1.54v-.14Z"/><path id="Path_113" class="cls-3" d="m293.15,226.26h2.05c-1.12.9-2.02,2.05-2.61,3.36-.48,1.29-.84,2.63-1.06,3.99v31.09l3.81,2.87,1.27-.98,1.06,1.19-6.7,5.88c-1.26-1.27-2.63-2.42-4.1-3.43-1.5-1.02-3.11-1.87-4.8-2.52,1.72-.97,2.78-2.79,2.76-4.76v-30.8c-.49-1.83-1.56-3.45-3.04-4.62l.42-.14c.14.14.33.21.53.21.29.02.58.09.85.21.35.14.61.25.78.32s.45.21.85.42c.55.32,1.06.71,1.52,1.16l.21.21c-.02.17.1.33.27.35.03,0,.06,0,.09,0,0,.1.05.14.14.14.76-.9,1.61-1.73,2.54-2.46.92-.76,2.01-1.28,3.18-1.54v-.14Z"/><path id="Path_114" class="cls-3" d="m312.64,238.23l9.18,9.38-12.15,10.57v6.93l5.86,2.8,4.38-3.22.99,1.33-9.47,7.35h-.28c-.34-.02-.67-.07-.99-.17-.42-.12-.7-.18-.81-.21-.58-.32-1.14-.68-1.66-1.09-.16-.1-.3-.21-.42-.35-.05-.05-.12-.12-.21-.21-.1-.1-.22-.18-.35-.25-.14-.07-.39-.21-.74-.42-.4-.23-.85-.38-1.31-.46l-.64-.21c-.18,0-.36-.03-.53-.07-.21-.05-.44-.1-.67-.14-.23-.04-.46-.12-.67-.21-.45-.14-.91-.24-1.38-.28,1.5-1.42,2.35-3.4,2.33-5.46v-19.53c1.77-.67,3.45-1.54,5.02-2.59,1.56-1.04,3.07-2.17,4.52-3.36v-.14Zm-2.97,6.23v11c.37-.1.71-.29.99-.56l1.06-.84c.09-.05.17-.1.25-.17.05-.06.11-.1.18-.14.07-.04.14-.09.21-.14.06-.04.12-.09.18-.14.02-.02.13-.1.32-.25.15-.11.29-.22.42-.35.48-.27.93-.59,1.34-.94.47-.4.87-.76,1.2-1.09l-6.15-6.38Z"/><path id="Path_115" class="cls-3" d="m331.2,238.23c2.56,1.92,4.22,4.81,4.59,7.98l.07.07v.35l8.76-8.26c.46.15.91.34,1.34.56,1.14.97,2.09,2.13,2.82,3.43.81,1.26,1.39,2.66,1.7,4.13l8.26-8.12,4.87,5.04,3.04-3.01.99,1.05c-1.22,1.5-2.15,3.21-2.75,5.04v18.21c0,.24.06.48.14.7,0-.09.07.07.21.49.03.22.11.42.25.59.16.26.27.43.32.52l.21.21c.15.17.33.31.53.42.08.04.16.06.25.07l1.34-.98.85,1.05-5.86,5.6c-1.64-.13-3.1-1.08-3.88-2.52-.75-1.45-1.16-3.06-1.2-4.69v-18.06c-.47-1.62-1.63-2.95-3.18-3.64l-4.51,4.34v17.23l2.33,2.59-.14.56-5.44,4.06-.85-.14-5.15-4.34c1.18-.54,2.04-1.6,2.33-2.87v-17.23c-.06-.08-.08-.18-.07-.28v-.35c-.06-.08-.08-.18-.07-.28-.13-.59-.34-1.15-.64-1.68-.13-.24-.27-.48-.42-.7-.06-.12-.13-.24-.21-.35-.08-.13-.21-.23-.35-.28l-.64-.21c-.1-.01-.19-.04-.28-.07h-.36l-4.8,4.62v16.52c.19.28.47.75.85,1.4.31.39.64.77.99,1.12.12.08.22.19.28.32.05.1.11.19.18.28.02.02.08.08.17.17l-5.86,4.77-5.51-4.9,2.19-2.31-.14-20.66-1.34-1.61-1.91.98-.71-.98,6.43-5.95Z"/><path id="Path_116" class="cls-3" d="m395.96,233.75h.71c.55.16,1.02.51,1.34.98.3.52.51,1.09.63,1.68,0,.07.03.15.07.21v1.12c-.05.16-.08.32-.07.49l-.21.84v.21s-.07.09-.07.14v.14s-.07.09-.07.14l-7.62,10.85,6.57,4.06v13.44c-2.99,1.17-5.8,2.78-8.33,4.76-.08.01-.15.05-.21.11-.08.06-.16.1-.25.14-.07.02-.13.05-.18.1-.05.05-.11.1-.18.14-.05.04-.11.06-.17.07-.52-.28-1.32-.65-2.4-1.12-.83-.3-1.68-.56-2.54-.77-.19-.02-.38-.07-.57-.14-.12,0-.24-.03-.35-.07h-.28c-.21,0-.43-.02-.64-.07h-1.27c-.21.06-.42.08-.64.07-1.1.22-2.18.5-3.25.84-.62.27-1.21.6-1.76.98l-.99-.7,8.4-12.18-6.43-3.92v-11.97c2.8-1.11,5.31-2.83,7.34-5.04l.42-.42c.08-.09.15-.18.21-.28l.21-.21,7.28,2.6c.18.18.32.28.42.28h.21c.06.05.14.08.21.07.42.14.67.22.74.25.15.03.31.04.46.04.28.01.57,0,.85-.07l1.69-.56c.24-.21.5-.38.78-.53.24-.12.45-.55.63-1.29v-1.34c-.11-.14-.26-.24-.42-.28,0-.09-.15-.25-.42-.49-.02-.2-.14-.37-.32-.46-.17-.07-.25-.13-.25-.18l-.21-.21v-.07s-.07-.02-.07-.07v-.14s-.1-.04-.14-.1c-.04-.05-.06-.11-.07-.17v-.28c0-.07.02-.14.04-.21.1-.23.23-.44.39-.63.18-.22.39-.41.64-.56l.07-.07h.07v-.14Zm-9.32,22.41l-6.85,9.87c.12.1.27.15.42.14.08,0,.15-.03.21-.07h.21c.43-.07.87-.11,1.31-.14.2,0,.4-.02.6-.07h1.06c.16.06.33.09.49.07h.57c.21.06.42.1.64.11.29.02.78.1,1.48.24.33.1.83.26,1.48.49,1.01.38,1.98.85,2.9,1.4v-9.1l-4.53-2.94Zm-5.15-3.43l3.95,2.31,6.29-8.96c-.17.17-.39.27-.64.28h-.35c-.11.04-.23.07-.35.07h-.43c-.11.06-.23.08-.35.07h-.64c.14,0-1.11-.16-3.74-.49-.85-.24-2.1-.65-3.75-1.26v7.98Z"/><path id="Path_117" class="cls-3" d="m414.89,238.23l9.18,9.38-12.15,10.57v6.93l5.86,2.8,4.38-3.22.99,1.33-9.46,7.35h-.28c-.34-.02-.67-.07-.99-.17-.42-.12-.7-.18-.81-.21-.58-.32-1.14-.68-1.66-1.09-.16-.1-.3-.21-.42-.35-.05-.05-.12-.12-.21-.21-.1-.1-.22-.18-.35-.25-.14-.07-.39-.21-.74-.42-.4-.23-.85-.38-1.31-.46l-.64-.21c-.18,0-.36-.03-.53-.07-.21-.05-.44-.1-.67-.14-.23-.04-.46-.12-.67-.21-.45-.14-.91-.24-1.38-.28,1.5-1.42,2.35-3.4,2.33-5.46v-19.53c1.77-.67,3.45-1.54,5.01-2.59,1.56-1.04,3.07-2.17,4.52-3.36v-.14Zm-2.97,6.23v11c.37-.1.71-.29.99-.56l1.06-.84c.09-.05.17-.1.25-.17.05-.06.11-.1.18-.14.07-.04.14-.09.21-.14.06-.04.12-.09.18-.14.02-.02.13-.1.32-.25.15-.11.29-.22.42-.35.48-.27.93-.59,1.34-.95.47-.4.87-.76,1.2-1.09l-6.14-6.37Z"/><path id="Path_118" class="cls-3" d="m433.32,238.23c1.23,1.07,2.32,2.3,3.25,3.64.88,1.28,1.37,2.79,1.41,4.34l8.76-7.85,4.8,4.76,2.9-2.45.92.91c-.03.1-.08.2-.14.28l-.14.14c-1.26,1.23-2.16,2.78-2.61,4.48v18.77c.04.29.12.57.25.84.09.15.15.32.18.49.05.05.12.13.21.24.06.09.13.17.21.25.05.05.16.19.35.42.12.18.29.33.49.42l1.48-1.19,1.13,1.19-6.5,5.46c-1.01-.31-1.91-.89-2.61-1.68-.67-.85-1.22-1.79-1.62-2.8v-21.15c-.1,0-.14-.04-.14-.1,0-.09-.03-.17-.07-.25-.05-.09-.1-.14-.14-.14-.08-.3-.23-.59-.42-.84-.24-.51-.6-.94-1.06-1.26-.31-.42-.76-.72-1.27-.84l-.71-.14-4.38,4.2v16.88c.17.49.4.96.67,1.4.24.43.54.83.88,1.19.12.08.22.19.28.32.05.1.11.19.18.28.02.02.08.08.18.17-1.57,1.86-3.46,3.43-5.58,4.62l-5.22-4.76,2.05-2.17v-19.54c-.04-.33-.16-.64-.35-.91-.22-.34-.45-.67-.71-.98-.28-.14-.42-.28-.42-.42l-1.55.56-.64-.98,5.72-5.81Z"/></g></g></g></g></svg>