<?xml version="1.0" encoding="UTF-8"?><svg id="Layer_2" xmlns="http://www.w3.org/2000/svg" viewBox="0 0 84.52 49.68"><defs><style>.cls-1{fill="currentColor"}</style></defs><g id="Layer_1-2"><path class="cls-1" d="m5.48,0h14.58c2.08,10.72,3.72,19.93,4.91,27.65l1.26-7.7c.51-3,1.05-5.93,1.64-8.78L30.12,0h14.89l5.79,49.68h-11.42l-3.08-34.16-7.12,34.16h-7.81L13.9,15.44l-2.97,34.23H0L5.48,0Z"/><path class="cls-1" d="m79.04,49.68h-14.58c-2.08-10.72-3.72-19.93-4.91-27.65l-1.26,7.7c-.51,3-1.05,5.93-1.64,8.78l-2.25,11.16h-14.89L33.73,0h11.42l3.08,34.16L55.35,0h7.81l7.46,34.23L73.59,0h10.93l-5.48,49.68Z"/></g></svg>